# xmcd
#
# Track frame offsets:
#	180
#	20375
#	39200
#	61935
#	79657
#	98455
#	116265
#	134887
#	152900
#	171367
#
# Disc length: 2632 seconds
#
# Revision: 1
# Processed by: cddbd v1.4PL0 Copyright (c) Steve Scherf et al.
# Submitted via: EasyCDDAExtractor 5.1.0
#
DISCID=750a460a
DTITLE=Antonio Quijote - Singing In Spanish
DYEAR=1900
DGENRE=Country
TTITLE0=Happy Birthday
TTITLE1=Quijote
TTITLE2=Por Vivir-Y-Cantar
TTITLE3=Amor
TTITLE4=La-Camarga
TTITLE5=La-Nina Del Rosal
TTITLE6=Una Moneda-Le-Di
TTITLE7=La Copa Del Olvido
TTITLE8=Que Bonita Es Mi Mina
TTITLE9=Llo Soy Un Ombre Del Campo
EXTD=
EXTT0=
EXTT1=
EXTT2=
EXTT3=
EXTT4=
EXTT5=
EXTT6=
EXTT7=
EXTT8=
EXTT9=
PLAYORDER=
